# xmcd
# Copyright (C) 1995-1998 Ti Kan
#
# Track frame offsets:
#       150
#       17300
#       34115
#       50640
#       68107
#       88445
#       100932
#       120105
#       138485
#       154759
#       169572
#       184920
#       193567
#
# Disc length: 2962 seconds
#
# Revision: 0
# Processed by: cddbd v1.4PL0 Copyright (c) Steve Scherf et al.
# Submitted via: CD-Transfer v1.0
#
DISCID=a60b900d
DTITLE=Krauss - Today Is Not Yesterday
DYEAR=2003
DGENRE=
TTITLE0=I'm Alive
TTITLE1=Your Fears
TTITLE2=Home
TTITLE3=In Your Hands
TTITLE4=Butterfly
TTITLE5=Heartbeats
TTITLE6=Don't Hesitate
TTITLE7=Lean On Me
TTITLE8=Beautiful May
TTITLE9=Don't Tell Me This
TTITLE10=Overact
TTITLE11=Dear Little Boy
TTITLE12=Liar
EXTD=
EXTT0=
EXTT1=
EXTT2=
EXTT3=
EXTT4=
EXTT5=
EXTT6=
EXTT7=
EXTT8=
EXTT9=
EXTT10=
EXTT11=
EXTT12=
PLAYORDER=
